<svg width="952" height="270" viewBox="0 0 952 270" fill="none" xmlns="http://www.w3.org/2000/svg">
<mask id="path-1-outside-1_488_259" maskUnits="userSpaceOnUse" x="6" y="64.0482" width="404" height="110" fill="black">
<rect fill="white" x="6" y="64.0482" width="404" height="110"/>
<path d="M34.5797 171.897H7.70117V66.1949H48.019L67.9515 141.546H68.8575L88.4879 66.1949H128.957V171.897H101.927V98.8116H101.021L81.9948 171.897H54.5122L35.4858 98.8116H34.5797V171.897ZM223.677 172.048H141.38V66.3459H223.677V88.9964H169.92V107.872H218.996V130.522H169.92V149.398H223.677V172.048ZM316.951 172.048H234.654V66.3459H316.951V88.9964H263.194V107.872H312.27V130.522H263.194V149.398H316.951V172.048ZM379.42 172.048H350.881L351.032 88.9964H321.888L321.586 66.3459H408.413L408.564 88.9964H379.571L379.42 172.048Z"/>
</mask>
<path d="M34.5797 171.897V173.297H35.9797V171.897H34.5797ZM7.70117 171.897H6.30117V173.297H7.70117V171.897ZM7.70117 66.1949V64.7949H6.30117V66.1949H7.70117ZM48.019 66.1949L49.3725 65.8369L49.0968 64.7949H48.019V66.1949ZM67.9515 141.546L66.598 141.904L66.8736 142.946H67.9515V141.546ZM68.8575 141.546V142.946H69.9395L70.2123 141.898L68.8575 141.546ZM88.4879 66.1949V64.7949H87.4059L87.1331 65.8419L88.4879 66.1949ZM128.957 66.1949H130.357V64.7949H128.957V66.1949ZM128.957 171.897V173.297H130.357V171.897H128.957ZM101.927 171.897H100.527V173.297H101.927V171.897ZM101.927 98.8116H103.327V97.4116H101.927V98.8116ZM101.021 98.8116V97.4116H99.939L99.6663 98.4589L101.021 98.8116ZM81.9948 171.897V173.297H83.077L83.3496 172.25L81.9948 171.897ZM54.5122 171.897L53.1573 172.25L53.43 173.297H54.5122V171.897ZM35.4858 98.8116L36.8406 98.4589L36.568 97.4116H35.4858V98.8116ZM34.5797 98.8116V97.4116H33.1797V98.8116H34.5797ZM34.5797 170.497H7.70117V173.297H34.5797V170.497ZM9.10117 171.897V66.1949H6.30117V171.897H9.10117ZM7.70117 67.5949H48.019V64.7949H7.70117V67.5949ZM46.6656 66.5529L66.598 141.904L69.3049 141.187L49.3725 65.8369L46.6656 66.5529ZM67.9515 142.946H68.8575V140.146H67.9515V142.946ZM70.2123 141.898L89.8427 66.5478L87.1331 65.8419L67.5027 141.193L70.2123 141.898ZM88.4879 67.5949H128.957V64.7949H88.4879V67.5949ZM127.557 66.1949V171.897H130.357V66.1949H127.557ZM128.957 170.497H101.927V173.297H128.957V170.497ZM103.327 171.897V98.8116H100.527V171.897H103.327ZM101.927 97.4116H101.021V100.212H101.927V97.4116ZM99.6663 98.4589L80.6399 171.544L83.3496 172.25L102.376 99.1643L99.6663 98.4589ZM81.9948 170.497H54.5122V173.297H81.9948V170.497ZM55.867 171.544L36.8406 98.4589L34.1309 99.1643L53.1573 172.25L55.867 171.544ZM35.4858 97.4116H34.5797V100.212H35.4858V97.4116ZM33.1797 98.8116V171.897H35.9797V98.8116H33.1797ZM223.677 172.048V173.448H225.077V172.048H223.677ZM141.38 172.048H139.98V173.448H141.38V172.048ZM141.38 66.3459V64.9459H139.98V66.3459H141.38ZM223.677 66.3459H225.077V64.9459H223.677V66.3459ZM223.677 88.9964V90.3964H225.077V88.9964H223.677ZM169.92 88.9964V87.5964H168.52V88.9964H169.92ZM169.92 107.872H168.52V109.272H169.92V107.872ZM218.996 107.872H220.396V106.472H218.996V107.872ZM218.996 130.522V131.922H220.396V130.522H218.996ZM169.92 130.522V129.122H168.52V130.522H169.92ZM169.92 149.398H168.52V150.798H169.92V149.398ZM223.677 149.398H225.077V147.998H223.677V149.398ZM223.677 170.648H141.38V173.448H223.677V170.648ZM142.78 172.048V66.3459H139.98V172.048H142.78ZM141.38 67.7459H223.677V64.9459H141.38V67.7459ZM222.277 66.3459V88.9964H225.077V66.3459H222.277ZM223.677 87.5964H169.92V90.3964H223.677V87.5964ZM168.52 88.9964V107.872H171.32V88.9964H168.52ZM169.92 109.272H218.996V106.472H169.92V109.272ZM217.596 107.872V130.522H220.396V107.872H217.596ZM218.996 129.122H169.92V131.922H218.996V129.122ZM168.52 130.522V149.398H171.32V130.522H168.52ZM169.92 150.798H223.677V147.998H169.92V150.798ZM222.277 149.398V172.048H225.077V149.398H222.277ZM316.951 172.048V173.448H318.351V172.048H316.951ZM234.654 172.048H233.254V173.448H234.654V172.048ZM234.654 66.3459V64.9459H233.254V66.3459H234.654ZM316.951 66.3459H318.351V64.9459H316.951V66.3459ZM316.951 88.9964V90.3964H318.351V88.9964H316.951ZM263.194 88.9964V87.5964H261.794V88.9964H263.194ZM263.194 107.872H261.794V109.272H263.194V107.872ZM312.27 107.872H313.67V106.472H312.27V107.872ZM312.27 130.522V131.922H313.67V130.522H312.27ZM263.194 130.522V129.122H261.794V130.522H263.194ZM263.194 149.398H261.794V150.798H263.194V149.398ZM316.951 149.398H318.351V147.998H316.951V149.398ZM316.951 170.648H234.654V173.448H316.951V170.648ZM236.054 172.048V66.3459H233.254V172.048H236.054ZM234.654 67.7459H316.951V64.9459H234.654V67.7459ZM315.551 66.3459V88.9964H318.351V66.3459H315.551ZM316.951 87.5964H263.194V90.3964H316.951V87.5964ZM261.794 88.9964V107.872H264.594V88.9964H261.794ZM263.194 109.272H312.27V106.472H263.194V109.272ZM310.87 107.872V130.522H313.67V107.872H310.87ZM312.27 129.122H263.194V131.922H312.27V129.122ZM261.794 130.522V149.398H264.594V130.522H261.794ZM263.194 150.798H316.951V147.998H263.194V150.798ZM315.551 149.398V172.048H318.351V149.398H315.551ZM379.42 172.048V173.448H380.818L380.82 172.051L379.42 172.048ZM350.881 172.048L349.481 172.046L349.478 173.448H350.881V172.048ZM351.032 88.9964L352.432 88.9989L352.434 87.5964H351.032V88.9964ZM321.888 88.9964L320.488 89.015L320.507 90.3964H321.888V88.9964ZM321.586 66.3459V64.9459H320.167L320.186 66.3646L321.586 66.3459ZM408.413 66.3459L409.813 66.3366L409.804 64.9459H408.413V66.3459ZM408.564 88.9964V90.3964H409.973L409.964 88.9871L408.564 88.9964ZM379.571 88.9964V87.5964H378.174L378.171 88.9938L379.571 88.9964ZM379.42 170.648H350.881V173.448H379.42V170.648ZM352.281 172.051L352.432 88.9989L349.632 88.9938L349.481 172.046L352.281 172.051ZM351.032 87.5964H321.888V90.3964H351.032V87.5964ZM323.288 88.9777L322.986 66.3272L320.186 66.3646L320.488 89.015L323.288 88.9777ZM321.586 67.7459H408.413V64.9459H321.586V67.7459ZM407.013 66.3552L407.164 89.0057L409.964 88.9871L409.813 66.3366L407.013 66.3552ZM408.564 87.5964H379.571V90.3964H408.564V87.5964ZM378.171 88.9938L378.02 172.046L380.82 172.051L380.971 88.9989L378.171 88.9938Z" fill="#A0A0A0" mask="url(#path-1-outside-1_488_259)"/>
<path d="M470.241 172.048H441.701V66.3459H489.569C515.391 66.3459 530.34 77.0671 530.34 100.171C530.34 115.573 523.243 125.992 511.314 130.522L531.397 172.048H502.857L484.284 133.995H470.241V172.048ZM470.241 88.9964V111.345H488.059C496.364 111.345 501.8 108.778 501.8 100.171C501.8 91.5634 496.364 88.9964 488.059 88.9964H470.241Z" fill="#333333"/>
<path d="M603.64 147.448L576.28 183.088L547.48 163.288L574.12 127.648L529.84 113.608L541.72 81.5682L586 94.8882V50.6082H621.28V94.5281L665.56 81.5682L677.44 113.608L632.8 127.648L659.8 163.288L631 183.088L603.64 147.448Z" fill="#333333"/>
<path d="M717.7 173.86C682.667 173.86 669.379 144.566 669.379 119.952V118.442C669.379 93.8285 684.177 64.2318 722.381 64.2318C753.035 64.2318 771.155 82.9563 772.665 102.436H743.673C742.314 93.0735 733.706 86.7313 722.381 86.8823C703.204 87.0333 697.919 105.003 697.919 118.442V119.952C697.919 133.391 703.204 151.059 722.381 151.21C733.706 151.361 744.126 145.17 744.126 135.203V134.297H724.495V111.647H772.665V172.048H748.958V168.424C748.958 164.951 749.26 162.384 750.317 159.213L752.129 154.23L751.374 153.928L748.958 159.062C745.032 166.763 732.8 173.86 717.7 173.86ZM859.745 172.048H777.448V66.3459H859.745V88.9964H805.987V107.872H855.064V130.522H805.987V149.398H859.745V172.048ZM945.468 172.048H863.172V66.3459H945.468V88.9964H891.711V107.872H940.787V130.522H891.711V149.398H945.468V172.048Z" fill="#333333"/>
</svg>
